<svg width="185" height="33" viewBox="0 0 185 33" fill="none" xmlns="http://www.w3.org/2000/svg">
<path d="M14.6299 10.2305C14.6299 9.79102 14.5859 9.33691 14.498 8.86816C14.4102 8.39941 14.2344 7.97461 13.9707 7.59375C13.7168 7.20312 13.3506 6.88574 12.8721 6.6416C12.4033 6.39746 11.7783 6.27539 10.9971 6.27539C10.2939 6.27539 9.61035 6.43164 8.94629 6.74414C8.28223 7.04688 7.68652 7.50098 7.15918 8.10645C6.6416 8.71191 6.22656 9.46875 5.91406 10.377C5.60156 11.2754 5.44531 12.3252 5.44531 13.5264C5.44531 14.9033 5.66016 16.0654 6.08984 17.0127C6.51953 17.96 7.09082 18.7314 7.80371 19.3271C8.5166 19.9131 9.33203 20.3379 10.25 20.6016C11.168 20.8652 12.1104 20.9971 13.0771 20.9971C13.5264 20.9971 13.9707 20.9824 14.4102 20.9531C14.8594 20.9141 15.2842 20.8652 15.6846 20.8066C16.085 20.748 16.4561 20.6846 16.7979 20.6162C17.1494 20.5381 17.457 20.4551 17.7207 20.3672L18.5264 23.3408C18.0674 23.5068 17.5596 23.668 17.0029 23.8242C16.4463 23.9707 15.8604 24.1025 15.2451 24.2197C14.6299 24.3369 13.9902 24.4297 13.3262 24.498C12.6621 24.5664 11.998 24.6006 11.334 24.6006C9.64453 24.6006 8.11133 24.376 6.73438 23.9268C5.35742 23.4775 4.18066 22.8135 3.2041 21.9346C2.22754 21.0557 1.4707 19.9717 0.933594 18.6826C0.40625 17.3838 0.142578 15.8848 0.142578 14.1855C0.142578 12.4277 0.430664 10.8555 1.00684 9.46875C1.58301 8.08203 2.38867 6.91504 3.42383 5.96777C4.46875 5.01074 5.71875 4.2832 7.17383 3.78516C8.63867 3.27734 10.2549 3.02344 12.0225 3.02344C12.7842 3.02344 13.4727 3.04785 14.0879 3.09668C14.7031 3.14551 15.2695 3.20898 15.7871 3.28711C16.3047 3.36523 16.7881 3.45801 17.2373 3.56543C17.6865 3.66309 18.126 3.76563 18.5557 3.87305L18.3213 10.4355H14.6299V10.2305ZM19.874 17.9355C19.874 16.9688 20.0498 16.0361 20.4014 15.1377C20.7627 14.2295 21.2705 13.4287 21.9248 12.7354C22.5889 12.042 23.3896 11.4854 24.3271 11.0654C25.2646 10.6455 26.3096 10.4355 27.4619 10.4355C28.6045 10.4355 29.5859 10.5967 30.4062 10.9189C31.2266 11.2314 31.9053 11.666 32.4424 12.2227C32.9795 12.7793 33.375 13.4336 33.6289 14.1855C33.8828 14.9375 34.0098 15.748 34.0098 16.6172C34.0098 17.7012 33.8047 18.7168 33.3945 19.6641C32.9941 20.6113 32.4521 21.4316 31.7686 22.125C31.085 22.8184 30.2891 23.3652 29.3809 23.7656C28.4824 24.166 27.5352 24.3662 26.5391 24.3662C25.2988 24.3662 24.2539 24.1953 23.4043 23.8535C22.5547 23.502 21.8662 23.0332 21.3389 22.4473C20.8213 21.8516 20.4453 21.168 20.2109 20.3965C19.9863 19.6152 19.874 18.7949 19.874 17.9355ZM24.4004 17.4229C24.4004 17.9893 24.4639 18.502 24.5908 18.9609C24.7275 19.4102 24.9082 19.7959 25.1328 20.1182C25.3574 20.4404 25.6211 20.6895 25.9238 20.8652C26.2266 21.0312 26.5488 21.1143 26.8906 21.1143C27.252 21.1143 27.5889 21.0312 27.9014 20.8652C28.2236 20.6895 28.4971 20.4404 28.7217 20.1182C28.9561 19.7959 29.1367 19.4102 29.2637 18.9609C29.4004 18.502 29.4688 17.9893 29.4688 17.4229C29.4688 16.8369 29.4004 16.3145 29.2637 15.8555C29.1367 15.3867 28.9561 14.9912 28.7217 14.6689C28.4971 14.3369 28.2236 14.083 27.9014 13.9072C27.5889 13.7314 27.252 13.6436 26.8906 13.6436C26.5488 13.6436 26.2266 13.7314 25.9238 13.9072C25.6211 14.083 25.3574 14.3369 25.1328 14.6689C24.9082 14.9912 24.7275 15.3867 24.5908 15.8555C24.4639 16.3145 24.4004 16.8369 24.4004 17.4229ZM40.6602 13.3506C40.9922 12.9697 41.3486 12.6035 41.7295 12.252C42.1201 11.9004 42.5352 11.5928 42.9746 11.3291C43.4238 11.0557 43.9023 10.8408 44.4102 10.6846C44.9277 10.5186 45.4746 10.4355 46.0508 10.4355C47.3008 10.4355 48.248 10.8359 48.8926 11.6367C49.5371 12.4375 49.8594 13.6094 49.8594 15.1523C49.8594 15.4746 49.8447 15.8359 49.8154 16.2363C49.7861 16.627 49.7568 17.0078 49.7275 17.3789C49.6982 17.75 49.6689 18.0869 49.6396 18.3896C49.6104 18.6924 49.5957 18.9121 49.5957 19.0488C49.5957 19.4102 49.6348 19.7471 49.7129 20.0596C49.791 20.3721 49.9131 20.6455 50.0791 20.8799C50.2549 21.1143 50.4697 21.2998 50.7236 21.4365C50.9775 21.5635 51.2803 21.627 51.6318 21.627L51.5439 24H51.2363C50.5332 24 49.8936 24.0098 49.3174 24.0293C48.751 24.0488 48.2139 24.0781 47.7061 24.1172C47.1982 24.166 46.7002 24.2295 46.2119 24.3076C45.7236 24.3857 45.2109 24.4834 44.6738 24.6006C44.8008 23.8975 44.9131 23.1602 45.0107 22.3887C45.1182 21.6074 45.2061 20.8506 45.2744 20.1182C45.3525 19.3857 45.4111 18.7119 45.4502 18.0967C45.4893 17.4717 45.5088 16.959 45.5088 16.5586C45.5088 16.1387 45.4697 15.7871 45.3916 15.5039C45.3232 15.2207 45.2207 14.9961 45.084 14.8301C44.9473 14.6543 44.7715 14.5322 44.5566 14.4639C44.3516 14.3857 44.1123 14.3467 43.8389 14.3467C43.3994 14.3467 42.9697 14.4199 42.5498 14.5664C42.1299 14.7129 41.7686 14.8789 41.4658 15.0645C41.4463 15.2793 41.4268 15.5723 41.4072 15.9434C41.3877 16.3047 41.3682 16.7197 41.3486 17.1885C41.3291 17.6572 41.3145 18.1699 41.3047 18.7266C41.2949 19.2734 41.29 19.8447 41.29 20.4404C41.2998 21.0264 41.3096 21.6221 41.3193 22.2275C41.3389 22.833 41.3682 23.4238 41.4072 24C40.8408 24 40.3184 24.0146 39.8398 24.0439C39.3711 24.083 38.9316 24.127 38.5215 24.1758C38.1113 24.2344 37.7207 24.2979 37.3496 24.3662C36.9883 24.4443 36.6416 24.5225 36.3096 24.6006C36.4365 23.8975 36.5439 23.165 36.6318 22.4033C36.7295 21.6416 36.8125 20.9092 36.8809 20.2061C36.9492 19.5029 36.998 18.8486 37.0273 18.2432C37.0664 17.6377 37.0859 17.1348 37.0859 16.7344C37.0859 16.2949 37.0518 15.9043 36.9834 15.5625C36.915 15.2109 36.7979 14.9131 36.6318 14.6689C36.4756 14.4248 36.2656 14.2344 36.002 14.0977C35.7383 13.9512 35.4062 13.8633 35.0059 13.834L35.1084 11.4609C36.2803 11.4121 37.374 11.29 38.3896 11.0947C39.4053 10.8994 40.3477 10.6797 41.2168 10.4355L40.6602 13.3506ZM54.6494 10.8018L54.7373 9C54.7666 8.32617 54.9082 7.65723 55.1621 6.99316C55.416 6.3291 55.7383 5.69922 56.1289 5.10352C56.5293 4.50781 56.9834 3.95117 57.4912 3.43359C57.999 2.91602 58.5215 2.47168 59.0586 2.10059C59.6055 1.72949 60.1475 1.43652 60.6846 1.22168C61.2314 1.00684 61.7393 0.899414 62.208 0.899414C62.96 0.899414 63.5508 1.08984 63.9805 1.4707C64.4199 1.8418 64.6396 2.39355 64.6396 3.12598C64.6396 3.40918 64.6104 3.66309 64.5518 3.8877C64.4932 4.10254 64.4102 4.30273 64.3027 4.48828C64.2051 4.66406 64.0879 4.83008 63.9512 4.98633C63.8145 5.14258 63.6729 5.29883 63.5264 5.45508C63.1943 5.25977 62.8721 5.1084 62.5596 5.00098C62.2568 4.88379 61.9199 4.8252 61.5488 4.8252C60.7578 4.8252 60.1768 5.06934 59.8057 5.55762C59.4443 6.03613 59.2344 6.74414 59.1758 7.68164L59 10.8018C59.4199 10.792 59.8545 10.7725 60.3037 10.7432C60.7529 10.7139 61.1777 10.6797 61.5781 10.6406C61.9785 10.6016 62.335 10.5674 62.6475 10.5381C62.9697 10.499 63.2139 10.4648 63.3799 10.4355L62.7793 13.9219C62.2031 13.9121 61.6611 13.9023 61.1533 13.8926C60.7139 13.8828 60.2744 13.873 59.835 13.8633C59.3955 13.8438 59.0537 13.8242 58.8096 13.8047C58.79 14.1465 58.7754 14.5127 58.7656 14.9033C58.7559 15.2939 58.751 15.6895 58.751 16.0898C58.751 16.4902 58.751 16.8809 58.751 17.2617C58.751 17.6426 58.751 17.999 58.751 18.3311C58.751 18.79 58.79 19.2197 58.8682 19.6201C58.9463 20.0107 59.0684 20.3525 59.2344 20.6455C59.4004 20.9385 59.6104 21.1729 59.8643 21.3486C60.1182 21.5244 60.4258 21.6172 60.7871 21.627L60.6992 24H60.377C59.0879 24 57.9209 24.0391 56.876 24.1172C55.8311 24.1953 54.8154 24.3564 53.8291 24.6006C53.9854 23.0771 54.1221 21.3828 54.2393 19.5176C54.3662 17.6523 54.4834 15.5967 54.5908 13.3506C54.3955 13.3408 54.1465 13.3213 53.8438 13.292C53.5508 13.2627 53.2627 13.2334 52.9795 13.2041C52.6475 13.165 52.3008 13.126 51.9395 13.0869L52.0273 10.8018H54.6494ZM68.1406 3.62402L72.2129 3.02344L77.501 15.6357H78.1016L82.8037 3.62402L87.6084 3.02344L89.0146 18.4482C89.0635 18.9951 89.1367 19.4346 89.2344 19.7666C89.332 20.0986 89.4541 20.3623 89.6006 20.5576C89.7568 20.7432 89.9424 20.8799 90.1572 20.9678C90.3818 21.0459 90.6406 21.1045 90.9336 21.1436L91.5049 21.2461L91.417 24.0879C91.0264 24.0488 90.5918 24.0098 90.1133 23.9707C89.7031 23.9414 89.21 23.917 88.6338 23.8975C88.0576 23.8682 87.4229 23.8535 86.7295 23.8535C86.0654 23.8535 85.3281 23.873 84.5176 23.9121C83.7168 23.9414 82.7842 24 81.7197 24.0879L81.8516 21.2461C82.1055 21.2168 82.3691 21.1875 82.6426 21.1582C82.877 21.1387 83.1357 21.1191 83.4189 21.0996C83.7119 21.0703 84 21.0557 84.2832 21.0557L83.5215 11.5488H82.9209L78.3359 23.1943H75.3916L70.6309 11.5488H70.0303C70.001 12.7109 69.9717 13.6924 69.9424 14.4932C69.9229 15.2939 69.9033 15.958 69.8838 16.4854C69.874 17.0127 69.8643 17.4229 69.8545 17.7158C69.8545 17.999 69.8496 18.2139 69.8398 18.3604C69.8398 18.4971 69.8398 18.585 69.8398 18.624C69.8398 18.6533 69.8398 18.6777 69.8398 18.6973C69.8398 19.1855 69.8838 19.5811 69.9717 19.8838C70.0596 20.1768 70.1816 20.4111 70.3379 20.5869C70.5039 20.7627 70.6992 20.8896 70.9238 20.9678C71.1582 21.0459 71.417 21.1045 71.7002 21.1436L72.3008 21.2461L72.1836 24.0879C71.7734 24.0488 71.334 24.0098 70.8652 23.9707C70.4551 23.9414 69.9814 23.917 69.4443 23.8975C68.9072 23.8682 68.3311 23.8535 67.7158 23.8535C67.374 23.8535 67.0566 23.8584 66.7637 23.8682C66.4805 23.8779 66.1777 23.8926 65.8555 23.9121C65.5332 23.9219 65.1768 23.9463 64.7861 23.9854C64.4053 24.0146 63.9512 24.0488 63.4238 24.0879L63.541 21.2461C63.7949 21.2168 64.0586 21.1875 64.332 21.1582C64.5664 21.1387 64.8252 21.1191 65.1084 21.0996C65.4014 21.0703 65.6895 21.0557 65.9727 21.0557L68.1406 3.62402ZM107.94 22.7695C107.462 23.2578 106.925 23.6484 106.329 23.9414C105.733 24.2246 105.084 24.3662 104.381 24.3662C103.551 24.3662 102.892 24.1562 102.403 23.7363C101.915 23.3164 101.583 22.7744 101.407 22.1104C101.173 22.4229 100.904 22.7158 100.602 22.9893C100.309 23.2627 99.9766 23.502 99.6055 23.707C99.2344 23.9121 98.8193 24.0732 98.3604 24.1904C97.9111 24.3076 97.4082 24.3662 96.8516 24.3662C96.1777 24.3662 95.5918 24.2686 95.0938 24.0732C94.6055 23.8779 94.2002 23.6191 93.8779 23.2969C93.5557 22.9648 93.3115 22.5889 93.1455 22.1689C92.9893 21.749 92.9111 21.3193 92.9111 20.8799C92.9111 20.2158 93.043 19.6396 93.3066 19.1514C93.5703 18.6533 93.917 18.2285 94.3467 17.877C94.7861 17.5156 95.2842 17.2227 95.8408 16.998C96.4072 16.7637 96.9883 16.583 97.584 16.4561C98.1797 16.3193 98.7656 16.2266 99.3418 16.1777C99.9277 16.1191 100.465 16.085 100.953 16.0752C100.973 15.9385 100.982 15.8311 100.982 15.7529C100.982 15.665 100.982 15.5723 100.982 15.4746C100.982 14.9375 100.826 14.5322 100.514 14.2588C100.201 13.9756 99.7666 13.834 99.21 13.834C98.9951 13.834 98.7559 13.8633 98.4922 13.9219C98.2383 13.9707 97.9844 14.0635 97.7305 14.2002C97.4863 14.3369 97.2568 14.5322 97.042 14.7861C96.8271 15.0303 96.6611 15.3428 96.5439 15.7236C96.3096 15.7236 96.0215 15.7139 95.6797 15.6943C95.3379 15.665 95.0059 15.5869 94.6836 15.46C94.3613 15.333 94.083 15.1377 93.8486 14.874C93.624 14.6104 93.5117 14.2441 93.5117 13.7754C93.5117 13.3945 93.5947 13.0479 93.7607 12.7354C93.9268 12.4229 94.1514 12.1445 94.4346 11.9004C94.7275 11.6465 95.0645 11.4316 95.4453 11.2559C95.8359 11.0703 96.2461 10.9189 96.6758 10.8018C97.1055 10.6748 97.5449 10.582 97.9941 10.5234C98.4434 10.4648 98.8828 10.4355 99.3125 10.4355C100.211 10.4355 101.021 10.5186 101.744 10.6846C102.477 10.8408 103.097 11.1045 103.604 11.4756C104.122 11.8369 104.518 12.3203 104.791 12.9258C105.074 13.5215 105.216 14.2539 105.216 15.123C105.216 15.4062 105.196 15.7822 105.157 16.251C105.128 16.71 105.094 17.1787 105.055 17.6572C105.025 18.1357 104.991 18.585 104.952 19.0049C104.923 19.415 104.908 19.708 104.908 19.8838C104.908 20.0986 104.938 20.2793 104.996 20.4258C105.064 20.5625 105.147 20.6748 105.245 20.7627C105.343 20.8506 105.45 20.9141 105.567 20.9531C105.694 20.9824 105.816 20.9971 105.934 20.9971C106.1 20.9971 106.241 20.9824 106.358 20.9531C106.485 20.9238 106.622 20.8701 106.769 20.792L107.94 22.7695ZM100.631 18.5361C100.309 18.5361 99.9424 18.5703 99.5322 18.6387C99.1318 18.6973 98.7559 18.7998 98.4043 18.9463C98.0527 19.083 97.7549 19.2637 97.5107 19.4883C97.2666 19.7031 97.1445 19.9668 97.1445 20.2793C97.1445 20.5527 97.2422 20.7773 97.4375 20.9531C97.6328 21.1289 97.916 21.2168 98.2871 21.2168C98.5605 21.2168 98.8389 21.168 99.1221 21.0703C99.4053 20.9629 99.6641 20.8018 99.8984 20.5869C100.133 20.3721 100.333 20.0938 100.499 19.752C100.675 19.4102 100.797 19.0049 100.865 18.5361H100.631ZM113.727 13.3506C114.059 12.9697 114.415 12.6035 114.796 12.252C115.187 11.9004 115.602 11.5928 116.041 11.3291C116.49 11.0557 116.969 10.8408 117.477 10.6846C117.994 10.5186 118.541 10.4355 119.117 10.4355C120.367 10.4355 121.314 10.8359 121.959 11.6367C122.604 12.4375 122.926 13.6094 122.926 15.1523C122.926 15.4746 122.911 15.8359 122.882 16.2363C122.853 16.627 122.823 17.0078 122.794 17.3789C122.765 17.75 122.735 18.0869 122.706 18.3896C122.677 18.6924 122.662 18.9121 122.662 19.0488C122.662 19.4102 122.701 19.7471 122.779 20.0596C122.857 20.3721 122.979 20.6455 123.146 20.8799C123.321 21.1143 123.536 21.2998 123.79 21.4365C124.044 21.5635 124.347 21.627 124.698 21.627L124.61 24H124.303C123.6 24 122.96 24.0098 122.384 24.0293C121.817 24.0488 121.28 24.0781 120.772 24.1172C120.265 24.166 119.767 24.2295 119.278 24.3076C118.79 24.3857 118.277 24.4834 117.74 24.6006C117.867 23.8975 117.979 23.1602 118.077 22.3887C118.185 21.6074 118.272 20.8506 118.341 20.1182C118.419 19.3857 118.478 18.7119 118.517 18.0967C118.556 17.4717 118.575 16.959 118.575 16.5586C118.575 16.1387 118.536 15.7871 118.458 15.5039C118.39 15.2207 118.287 14.9961 118.15 14.8301C118.014 14.6543 117.838 14.5322 117.623 14.4639C117.418 14.3857 117.179 14.3467 116.905 14.3467C116.466 14.3467 116.036 14.4199 115.616 14.5664C115.196 14.7129 114.835 14.8789 114.532 15.0645C114.513 15.2793 114.493 15.5723 114.474 15.9434C114.454 16.3047 114.435 16.7197 114.415 17.1885C114.396 17.6572 114.381 18.1699 114.371 18.7266C114.361 19.2734 114.356 19.8447 114.356 20.4404C114.366 21.0264 114.376 21.6221 114.386 22.2275C114.405 22.833 114.435 23.4238 114.474 24C113.907 24 113.385 24.0146 112.906 24.0439C112.438 24.083 111.998 24.127 111.588 24.1758C111.178 24.2344 110.787 24.2979 110.416 24.3662C110.055 24.4443 109.708 24.5225 109.376 24.6006C109.503 23.8975 109.61 23.165 109.698 22.4033C109.796 21.6416 109.879 20.9092 109.947 20.2061C110.016 19.5029 110.064 18.8486 110.094 18.2432C110.133 17.6377 110.152 17.1348 110.152 16.7344C110.152 16.2949 110.118 15.9043 110.05 15.5625C109.981 15.2109 109.864 14.9131 109.698 14.6689C109.542 14.4248 109.332 14.2344 109.068 14.0977C108.805 13.9512 108.473 13.8633 108.072 13.834L108.175 11.4609C109.347 11.4121 110.44 11.29 111.456 11.0947C112.472 10.8994 113.414 10.6797 114.283 10.4355L113.727 13.3506ZM140.841 22.7695C140.362 23.2578 139.825 23.6484 139.229 23.9414C138.634 24.2246 137.984 24.3662 137.281 24.3662C136.451 24.3662 135.792 24.1562 135.304 23.7363C134.815 23.3164 134.483 22.7744 134.308 22.1104C134.073 22.4229 133.805 22.7158 133.502 22.9893C133.209 23.2627 132.877 23.502 132.506 23.707C132.135 23.9121 131.72 24.0732 131.261 24.1904C130.812 24.3076 130.309 24.3662 129.752 24.3662C129.078 24.3662 128.492 24.2686 127.994 24.0732C127.506 23.8779 127.101 23.6191 126.778 23.2969C126.456 22.9648 126.212 22.5889 126.046 22.1689C125.89 21.749 125.812 21.3193 125.812 20.8799C125.812 20.2158 125.943 19.6396 126.207 19.1514C126.471 18.6533 126.817 18.2285 127.247 17.877C127.687 17.5156 128.185 17.2227 128.741 16.998C129.308 16.7637 129.889 16.583 130.484 16.4561C131.08 16.3193 131.666 16.2266 132.242 16.1777C132.828 16.1191 133.365 16.085 133.854 16.0752C133.873 15.9385 133.883 15.8311 133.883 15.7529C133.883 15.665 133.883 15.5723 133.883 15.4746C133.883 14.9375 133.727 14.5322 133.414 14.2588C133.102 13.9756 132.667 13.834 132.11 13.834C131.896 13.834 131.656 13.8633 131.393 13.9219C131.139 13.9707 130.885 14.0635 130.631 14.2002C130.387 14.3369 130.157 14.5322 129.942 14.7861C129.728 15.0303 129.562 15.3428 129.444 15.7236C129.21 15.7236 128.922 15.7139 128.58 15.6943C128.238 15.665 127.906 15.5869 127.584 15.46C127.262 15.333 126.983 15.1377 126.749 14.874C126.524 14.6104 126.412 14.2441 126.412 13.7754C126.412 13.3945 126.495 13.0479 126.661 12.7354C126.827 12.4229 127.052 12.1445 127.335 11.9004C127.628 11.6465 127.965 11.4316 128.346 11.2559C128.736 11.0703 129.146 10.9189 129.576 10.8018C130.006 10.6748 130.445 10.582 130.895 10.5234C131.344 10.4648 131.783 10.4355 132.213 10.4355C133.111 10.4355 133.922 10.5186 134.645 10.6846C135.377 10.8408 135.997 11.1045 136.505 11.4756C137.022 11.8369 137.418 12.3203 137.691 12.9258C137.975 13.5215 138.116 14.2539 138.116 15.123C138.116 15.4062 138.097 15.7822 138.058 16.251C138.028 16.71 137.994 17.1787 137.955 17.6572C137.926 18.1357 137.892 18.585 137.853 19.0049C137.823 19.415 137.809 19.708 137.809 19.8838C137.809 20.0986 137.838 20.2793 137.896 20.4258C137.965 20.5625 138.048 20.6748 138.146 20.7627C138.243 20.8506 138.351 20.9141 138.468 20.9531C138.595 20.9824 138.717 20.9971 138.834 20.9971C139 20.9971 139.142 20.9824 139.259 20.9531C139.386 20.9238 139.522 20.8701 139.669 20.792L140.841 22.7695ZM133.531 18.5361C133.209 18.5361 132.843 18.5703 132.433 18.6387C132.032 18.6973 131.656 18.7998 131.305 18.9463C130.953 19.083 130.655 19.2637 130.411 19.4883C130.167 19.7031 130.045 19.9668 130.045 20.2793C130.045 20.5527 130.143 20.7773 130.338 20.9531C130.533 21.1289 130.816 21.2168 131.188 21.2168C131.461 21.2168 131.739 21.168 132.022 21.0703C132.306 20.9629 132.564 20.8018 132.799 20.5869C133.033 20.3721 133.233 20.0938 133.399 19.752C133.575 19.4102 133.697 19.0049 133.766 18.5361H133.531ZM154.273 13.9512C154.293 14.0879 154.308 14.2588 154.317 14.4639C154.327 14.6592 154.332 14.8203 154.332 14.9473C154.332 15.7383 154.156 16.4463 153.805 17.0713C153.453 17.6865 152.975 18.2139 152.369 18.6533C151.773 19.083 151.075 19.415 150.274 19.6494C149.474 19.874 148.624 19.9863 147.726 19.9863H147.345C147.257 20.0938 147.184 20.2305 147.125 20.3965C147.076 20.5625 147.071 20.7285 147.11 20.8945C147.149 21.0508 147.247 21.1973 147.403 21.334C147.56 21.4707 147.809 21.5586 148.15 21.5977L151.842 22.0518C153.043 22.2275 153.927 22.5596 154.493 23.0479C155.06 23.5361 155.343 24.2441 155.343 25.1719C155.343 25.7285 155.221 26.2852 154.977 26.8418C154.732 27.4082 154.391 27.9453 153.951 28.4531C153.521 28.9707 152.999 29.4492 152.384 29.8887C151.778 30.3379 151.109 30.7236 150.377 31.0459C149.645 31.3779 148.858 31.6367 148.019 31.8223C147.188 32.0078 146.334 32.1006 145.455 32.1006C144 32.1006 142.882 31.8369 142.101 31.3096C141.329 30.7822 140.943 30.0352 140.943 29.0684C140.943 28.6191 141.021 28.2041 141.178 27.8232C141.334 27.4521 141.549 27.1055 141.822 26.7832C142.096 26.4609 142.408 26.1533 142.76 25.8604C143.111 25.5771 143.487 25.2988 143.888 25.0254C143.741 24.9668 143.585 24.8887 143.419 24.791C143.263 24.7031 143.116 24.5859 142.979 24.4395C142.843 24.293 142.73 24.1172 142.643 23.9121C142.555 23.6973 142.511 23.4385 142.511 23.1357C142.511 22.7842 142.579 22.4521 142.716 22.1396C142.862 21.8174 143.043 21.5146 143.258 21.2314C143.473 20.9385 143.707 20.6602 143.961 20.3965C144.215 20.1328 144.459 19.8838 144.693 19.6494C144.166 19.4736 143.722 19.249 143.36 18.9756C142.999 18.7021 142.706 18.3945 142.481 18.0527C142.267 17.7012 142.11 17.3301 142.013 16.9395C141.925 16.5488 141.881 16.1533 141.881 15.7529C141.881 15.0205 142.042 14.3369 142.364 13.7021C142.687 13.0576 143.136 12.501 143.712 12.0322C144.288 11.5635 144.977 11.1973 145.777 10.9336C146.588 10.6602 147.477 10.5234 148.443 10.5234C149.137 10.5234 149.752 10.5723 150.289 10.6699C150.826 10.7578 151.295 10.875 151.695 11.0215C152.096 11.168 152.433 11.3291 152.706 11.5049C152.979 11.6807 153.199 11.8564 153.365 12.0322C153.521 11.8369 153.692 11.6514 153.878 11.4756C154.063 11.29 154.264 11.1289 154.479 10.9922C154.693 10.8457 154.923 10.7334 155.167 10.6553C155.421 10.5674 155.689 10.5234 155.973 10.5234C156.578 10.5234 157.057 10.6846 157.408 11.0068C157.76 11.3193 157.936 11.7588 157.936 12.3252C157.936 12.7354 157.857 13.1016 157.701 13.4238C157.555 13.7461 157.359 14.0098 157.115 14.2148C156.861 14.0391 156.588 13.9121 156.295 13.834C156.012 13.7559 155.694 13.7168 155.343 13.7168C155.147 13.7168 154.957 13.7363 154.771 13.7754C154.586 13.8047 154.42 13.8633 154.273 13.9512ZM146.144 25.4355C145.87 25.6895 145.646 25.9971 145.47 26.3584C145.294 26.7295 145.206 27.1055 145.206 27.4863C145.206 27.7012 145.235 27.9014 145.294 28.0869C145.362 28.2822 145.475 28.4482 145.631 28.585C145.787 28.7217 145.987 28.8291 146.231 28.9072C146.476 28.9951 146.783 29.0391 147.154 29.0391C147.477 29.0391 147.828 28.9902 148.209 28.8926C148.6 28.8047 148.961 28.6729 149.293 28.4971C149.625 28.3213 149.903 28.1064 150.128 27.8525C150.353 27.5986 150.465 27.3057 150.465 26.9736C150.465 26.8662 150.445 26.7539 150.406 26.6367C150.377 26.5195 150.304 26.4023 150.187 26.2852C150.069 26.1777 149.898 26.0752 149.674 25.9775C149.459 25.8896 149.171 25.8213 148.81 25.7725L146.144 25.4355ZM148.092 13.4971C147.789 13.4971 147.535 13.5605 147.33 13.6875C147.125 13.8145 146.959 13.9756 146.832 14.1709C146.705 14.3564 146.612 14.5664 146.554 14.8008C146.495 15.0352 146.466 15.2598 146.466 15.4746C146.466 15.6699 146.495 15.8799 146.554 16.1045C146.612 16.3193 146.71 16.5195 146.847 16.7051C146.993 16.8906 147.179 17.042 147.403 17.1592C147.628 17.2764 147.906 17.335 148.238 17.335C148.512 17.335 148.746 17.2812 148.941 17.1738C149.146 17.0566 149.312 16.9102 149.439 16.7344C149.566 16.5586 149.659 16.3633 149.718 16.1484C149.776 15.9238 149.806 15.6992 149.806 15.4746C149.806 15.2793 149.771 15.0693 149.703 14.8447C149.645 14.6104 149.547 14.3955 149.41 14.2002C149.273 13.9951 149.093 13.8291 148.868 13.7021C148.653 13.5654 148.395 13.4971 148.092 13.4971ZM162.301 18.5361C162.369 18.8975 162.496 19.2344 162.682 19.5469C162.867 19.8496 163.111 20.1133 163.414 20.3379C163.717 20.5527 164.073 20.7236 164.483 20.8506C164.903 20.9678 165.387 21.0264 165.934 21.0264C166.432 21.0264 166.988 20.9824 167.604 20.8945C168.229 20.8066 168.819 20.6504 169.376 20.4258L170.313 22.2568C169.513 22.9307 168.609 23.4531 167.604 23.8242C166.607 24.1855 165.499 24.3662 164.278 24.3662C163.263 24.3662 162.354 24.2148 161.554 23.9121C160.763 23.5996 160.094 23.165 159.547 22.6084C159.01 22.0518 158.6 21.3877 158.316 20.6162C158.033 19.835 157.892 18.9805 157.892 18.0527C157.892 17.0371 158.048 16.0703 158.36 15.1523C158.673 14.2246 159.127 13.4141 159.723 12.7207C160.328 12.0176 161.065 11.4609 161.935 11.0508C162.813 10.6406 163.814 10.4355 164.938 10.4355C165.895 10.4355 166.744 10.5723 167.486 10.8457C168.229 11.1094 168.854 11.4854 169.361 11.9736C169.869 12.4521 170.255 13.0283 170.519 13.7021C170.782 14.3662 170.914 15.0986 170.914 15.8994C170.914 16.1729 170.899 16.4561 170.87 16.749C170.841 17.0322 170.812 17.2959 170.782 17.54C170.743 17.8232 170.704 18.0967 170.665 18.3604C170.079 18.4482 169.386 18.5117 168.585 18.5508C167.784 18.5801 166.93 18.5947 166.021 18.5947C165.719 18.5947 165.401 18.5947 165.069 18.5947C164.737 18.585 164.405 18.5801 164.073 18.5801C163.751 18.5703 163.434 18.5654 163.121 18.5654C162.818 18.5557 162.545 18.5459 162.301 18.5361ZM164.82 13.6436C164.566 13.6436 164.317 13.6924 164.073 13.79C163.829 13.8877 163.6 14.0391 163.385 14.2441C163.17 14.4492 162.979 14.708 162.813 15.0205C162.657 15.3232 162.535 15.6846 162.447 16.1045C162.828 16.0947 163.238 16.0703 163.678 16.0312C164.127 15.9922 164.547 15.9531 164.938 15.9141C165.328 15.875 165.66 15.8408 165.934 15.8115C166.207 15.7725 166.368 15.7432 166.417 15.7236V15.5039C166.417 14.9668 166.28 14.5225 166.007 14.1709C165.743 13.8193 165.348 13.6436 164.82 13.6436ZM178.897 14.9766C178.878 15.1719 178.854 15.4453 178.824 15.7969C178.805 16.1484 178.785 16.5488 178.766 16.998C178.746 17.4375 178.727 17.916 178.707 18.4336C178.697 18.9512 178.692 19.4688 178.692 19.9863C178.692 20.6309 178.697 21.2949 178.707 21.9785C178.717 22.6621 178.761 23.3359 178.839 24C177.804 24 176.842 24.0586 175.953 24.1758C175.074 24.3027 174.327 24.4443 173.712 24.6006C173.839 23.8975 173.946 23.165 174.034 22.4033C174.132 21.6416 174.215 20.9092 174.283 20.2061C174.352 19.5029 174.4 18.8486 174.43 18.2432C174.469 17.6377 174.488 17.1348 174.488 16.7344C174.488 15.7578 174.322 15.0449 173.99 14.5957C173.668 14.1465 173.141 13.8926 172.408 13.834L172.511 11.4609C173.038 11.4414 173.58 11.4023 174.137 11.3438C174.693 11.2754 175.235 11.1973 175.763 11.1094C176.3 11.0117 176.808 10.9043 177.286 10.7871C177.774 10.6699 178.219 10.5527 178.619 10.4355L178.062 13.3506C178.365 12.9111 178.692 12.5107 179.044 12.1494C179.396 11.7881 179.757 11.4805 180.128 11.2266C180.499 10.9727 180.87 10.7773 181.241 10.6406C181.622 10.5039 181.998 10.4355 182.369 10.4355C183.189 10.4355 183.824 10.665 184.273 11.124C184.732 11.583 184.962 12.2373 184.962 13.0869C184.962 13.6924 184.845 14.1855 184.61 14.5664C184.386 14.9473 184.093 15.2939 183.731 15.6064C183.575 15.4697 183.39 15.3428 183.175 15.2256C182.97 15.0986 182.75 14.9863 182.516 14.8887C182.281 14.791 182.037 14.7178 181.783 14.6689C181.539 14.6104 181.295 14.5811 181.051 14.5811C180.895 14.5811 180.714 14.5908 180.509 14.6104C180.313 14.6201 180.113 14.6445 179.908 14.6836C179.703 14.7129 179.513 14.752 179.337 14.8008C179.161 14.8496 179.015 14.9082 178.897 14.9766Z" fill="white"/>
</svg>
